<svg xmlns="http://www.w3.org/2000/svg" xmlns:xlink="http://www.w3.org/1999/xlink" width="13.44" height="11.94" viewBox="0 0 13.44 11.94"><defs><style>.a{fill:none;}.b{clip-path:url(#a);}.c{clip-path:url(#b);}</style><clipPath id="a"><path class="a" d="M0,0H4.94V5H0Z"/></clipPath><clipPath id="b"><path class="a" d="M0,0H4.94V10.44H0Z"/></clipPath></defs><path d="M2.5,3V9h1V3H6L3,0,0,3H2.5" transform="translate(7.44 2)"/><path d="M0,1H1.44V0H0Z"/><path d="M0,1H1.5V0H0Z" transform="translate(1.94)"/><path class="a" d="M0,0H4.94V5H0Z"/><g class="b"><path d="M0,1.5H1V0H0Z" transform="translate(3.94)"/><path d="M.03,1.5H.97V0H.03Z" transform="translate(-0.03 3.5)"/></g><path d="M0,1H1.5V0H0Z" transform="translate(1.44 4)"/><g transform="translate(0 1.5)"><path class="a" d="M0,0H4.94V10.44H0Z" transform="translate(0 0)"/><g class="c" transform="translate(0 0)"><path d="M0,1H1.5V0H0Z" transform="translate(3.44 2.5)"/><path d="M.03,1.5H.97V0H.03Z" transform="translate(-0.03)"/><path d="M0,1.5H1V0H0Z" transform="translate(3.94 0.5)"/><path d="M5,5H0V0H5V5ZM1,1V4H4V1Z" transform="translate(-0.06 5.5)"/></g></g></svg>