<svg xmlns="http://www.w3.org/2000/svg" width="13.973" height="15.968" viewBox="0 0 13.973 15.968"><path d="M13.57,13.127,9.958,7.349V3.376A1.721,1.721,0,0,0,9.491,0H4.48a1.721,1.721,0,0,0-.468,3.376V7.349L.4,13.127A1.915,1.915,0,0,0,.186,15.1a1.915,1.915,0,0,0,1.789.865H12a1.915,1.915,0,0,0,1.789-.865A1.915,1.915,0,0,0,13.57,13.127Zm-7.507.2a.467.467,0,1,1,.137-.331A.471.471,0,0,1,6.063,13.325ZM7.316,10.82a.469.469,0,1,1,.137-.331A.471.471,0,0,1,7.316,10.82Zm1.253,2.505a.468.468,0,1,1,.137-.331A.472.472,0,0,1,8.569,13.325ZM9.023,2.973V7.015H4.948V2.973a.468.468,0,0,0-.468-.468.785.785,0,0,1,0-1.57H9.491a.785.785,0,1,1,0,1.57A.468.468,0,0,0,9.023,2.973Zm0,0" transform="translate(0.001)"/></svg>