<svg xmlns="http://www.w3.org/2000/svg" width="16.517" height="15.923" viewBox="0 0 16.517 15.923"><defs><style>.a{fill:#2e2e2e;}</style></defs><g transform="translate(0 -9.202)"><g transform="translate(11.121 20.621)"><g transform="translate(0 0)"><path class="a" d="M348.789,363.381a.329.329,0,0,0-.423-.195l-3.422,1.263a.329.329,0,1,0,.228.617l3.422-1.263A.329.329,0,0,0,348.789,363.381Z" transform="translate(-344.73 -363.166)"/></g></g><g transform="translate(10.035 22.23)"><path class="a" d="M311.856,413.281a.329.329,0,0,0-.423-.195l-.145.053a.329.329,0,1,0,.228.617l.145-.053A.329.329,0,0,0,311.856,413.281Z" transform="translate(-311.074 -413.066)"/></g><g transform="translate(11.838 19.28)"><path class="a" d="M370.318,321.821a.329.329,0,0,0-.423-.195l-2.7,1a.329.329,0,1,0,.228.617l2.7-1A.329.329,0,0,0,370.318,321.821Z" transform="translate(-366.977 -321.605)"/></g><g transform="translate(11.838 17.953)"><path class="a" d="M370.318,280.692a.329.329,0,0,0-.423-.195l-2.7,1a.329.329,0,1,0,.228.617l2.7-1A.329.329,0,0,0,370.318,280.692Z" transform="translate(-366.977 -280.476)"/></g><g transform="translate(0 9.202)"><g transform="translate(0 0)"><path class="a" d="M16.3,12.148,8.372,9.222a.329.329,0,0,0-.228,0L.215,12.148h0A.328.328,0,0,0,0,12.457V21.87a.329.329,0,0,0,.215.309L8.144,25.1a.328.328,0,0,0,.228,0h0L16.3,22.179a.329.329,0,0,0,.215-.309V12.457A.329.329,0,0,0,16.3,12.148ZM7.929,24.324.658,21.641V12.929l1.481.546v3.987a.329.329,0,0,0,.215.309l3.553,1.311a.329.329,0,0,0,.443-.309V15.029l1.579.583v8.712ZM5.692,14.786V18.3L2.8,17.232V13.718ZM3.418,13.243l2.6-.96,2.6.96-2.6.96Zm4.84,1.789-1.29-.476,2.72-1a.329.329,0,0,0,0-.617L6.135,11.623a.329.329,0,0,0-.228,0L2.464,12.894,1.28,12.457,8.258,9.882l6.979,2.575Zm7.6,6.609L8.587,24.324V15.612l7.271-2.683Z" transform="translate(0 -9.202)"/></g></g></g></svg>