<svg xmlns="http://www.w3.org/2000/svg" width="60" height="60" viewBox="0 0 60 60"><defs><style>.a,.c{fill:none;}.b{opacity:0.747;}.c{stroke:#fff;stroke-miterlimit:10;}.d{fill:#fff;}.e{stroke:none;}</style></defs><rect class="a" width="60" height="60"/><g class="b" transform="translate(20 20)"><g class="c" transform="translate(2)"><rect class="e" width="3" height="3"/><rect class="a" x="0.5" y="0.5" width="2" height="2"/></g><g class="c" transform="translate(15)"><rect class="e" width="3" height="3"/><rect class="a" x="0.5" y="0.5" width="2" height="2"/></g><rect class="d" width="1" height="1" transform="translate(18 1)"/><rect class="d" width="1" height="19" transform="translate(19 1)"/><rect class="d" width="1" height="19" transform="translate(0 1)"/><rect class="d" width="18" height="1" transform="translate(1 5)"/><rect class="d" width="1" height="1" transform="translate(1 1)"/><rect class="d" width="10" height="1" transform="translate(5 1)"/><rect class="d" width="18" height="1" transform="translate(1 19)"/><g transform="translate(4 9)"><rect class="d" width="3" height="1"/><rect class="d" width="4" height="1" transform="translate(4)"/><rect class="d" width="3" height="1" transform="translate(9)"/></g><g transform="translate(4 12)"><rect class="d" width="3" height="1"/><rect class="d" width="4" height="1" transform="translate(4)"/><rect class="d" width="3" height="1" transform="translate(9)"/></g><g transform="translate(4 15)"><rect class="d" width="3" height="1"/><rect class="d" width="4" height="1" transform="translate(4)"/><rect class="d" width="3" height="1" transform="translate(9)"/></g></g></svg>