<svg xmlns="http://www.w3.org/2000/svg" xmlns:xlink="http://www.w3.org/1999/xlink" width="22" height="22" viewBox="0 0 22 22"><defs><style>.a{fill:none;}.b{fill:#d90004;}.c{fill:#ebebeb;}.d{clip-path:url(#a);}.e{clip-path:url(#b);}</style><clipPath id="a"><path class="a" d="M5.1,10.445A5.011,5.011,0,0,1,1.5,8.91a5.285,5.285,0,0,1,0-7.376,5,5,0,0,1,7.21,0,5.285,5.285,0,0,1,0,7.376A5.011,5.011,0,0,1,5.1,10.445ZM8.321,2.664h0L2.6,8.512A3.955,3.955,0,0,0,5.1,9.4,4.009,4.009,0,0,0,7.989,8.173a4.218,4.218,0,0,0,.332-5.509ZM5.1,1.044A4.009,4.009,0,0,0,2.22,2.272a4.219,4.219,0,0,0-.332,5.51L7.606,1.932A3.959,3.959,0,0,0,5.1,1.044Z" transform="translate(0 0)"/></clipPath><clipPath id="b"><rect class="b" width="25.524" height="25.524"/></clipPath></defs><g transform="translate(-831 -357)"><circle class="c" cx="11" cy="11" r="11" transform="translate(831 357)"/><g transform="translate(837 363)"><path class="a" d="M5.1,10.445A5.011,5.011,0,0,1,1.5,8.91a5.285,5.285,0,0,1,0-7.376,5,5,0,0,1,7.21,0,5.285,5.285,0,0,1,0,7.376A5.011,5.011,0,0,1,5.1,10.445ZM8.321,2.664h0L2.6,8.512A3.955,3.955,0,0,0,5.1,9.4,4.009,4.009,0,0,0,7.989,8.173a4.218,4.218,0,0,0,.332-5.509ZM5.1,1.044A4.009,4.009,0,0,0,2.22,2.272a4.219,4.219,0,0,0-.332,5.51L7.606,1.932A3.959,3.959,0,0,0,5.1,1.044Z" transform="translate(0 0)"/><g class="d" transform="translate(0 0)"><g transform="translate(-7.657 -7.834)"><rect class="b" width="25.524" height="26.112"/><rect class="b" width="25.524" height="25.524"/></g></g></g></g></svg>