<svg xmlns="http://www.w3.org/2000/svg" width="20" height="20" viewBox="0 0 20 20"><defs><style>.a{opacity:0.745;}.b,.e{fill:none;}.b{stroke:#fff;stroke-miterlimit:10;}.c{fill:#fff;}.d{stroke:none;}</style></defs><g class="a"><g class="b" transform="translate(10)"><rect class="d" width="10" height="10"/><rect class="e" x="0.5" y="0.5" width="9" height="9"/></g><rect class="c" width="2" height="1" transform="translate(14 2)"/><g transform="translate(0 10)"><g class="b"><rect class="d" width="10" height="10"/><rect class="e" x="0.5" y="0.5" width="9" height="9"/></g><rect class="c" width="6" height="1" transform="translate(12 9)"/><rect class="c" width="1" height="7" transform="translate(17 2)"/><path class="c" d="M.091,3.145h1l1-1h1l1,1a3.389,3.389,0,0,0,1,0v-1l-2-2a.921.921,0,0,0-1,0l-2,2C-.114,2.338.091,3.145.091,3.145Z" transform="translate(14.904 1.855)"/></g><g transform="translate(8 13) rotate(180)"><rect class="c" width="2" height="1" transform="translate(2 0)"/><rect class="c" width="6" height="1" transform="translate(0 12)"/><rect class="c" width="1" height="7" transform="translate(5 5)"/><path class="c" d="M.091,3.145h1l1-1h1l1,1a3.389,3.389,0,0,0,1,0v-1l-2-2a.921.921,0,0,0-1,0l-2,2C-.114,2.338.091,3.145.091,3.145Z" transform="translate(2.904 4.855)"/></g></g></svg>