<svg xmlns="http://www.w3.org/2000/svg" xmlns:xlink="http://www.w3.org/1999/xlink" width="16" height="16" viewBox="0 0 16 16"><defs><style>.a{fill:none;}.b{clip-path:url(#a);}.c{fill:rgba(0,0,0,0);}.d{fill:#66bb6a;}</style><clipPath id="a"><path class="a" d="M8,16a8,8,0,1,1,8-8A8.009,8.009,0,0,1,8,16ZM4.718,7.656l-1.03,1.03L6.5,12.031l5.875-6.406-.719-.719L6.5,9.406Z" transform="translate(7 7)"/></clipPath></defs><g transform="translate(-7 -7)"><path class="a" d="M8,16a8,8,0,1,1,8-8A8.009,8.009,0,0,1,8,16ZM4.718,7.656l-1.03,1.03L6.5,12.031l5.875-6.406-.719-.719L6.5,9.406Z" transform="translate(7 7)"/><g class="b"><g transform="translate(7 7)"><rect class="c" width="16" height="16"/><rect class="d" width="16" height="16"/></g></g></g></svg>