<svg xmlns="http://www.w3.org/2000/svg" width="60" height="60" viewBox="0 0 60 60"><defs><style>.a{fill:none;}.b{opacity:0.754;}.c{fill:#fff;}</style></defs><rect class="a" width="60" height="60"/><g class="b" transform="translate(20 20)"><rect class="c" width="1" height="13" transform="translate(8)"/><rect class="c" width="1" height="13"/><rect class="c" width="1" height="4" transform="translate(2 9)"/><rect class="c" width="7" height="1" transform="translate(1)"/><rect class="c" width="9" height="1" transform="translate(0 13)"/><rect class="c" width="3" height="1" transform="translate(3 9)"/><rect class="c" width="2" height="2" transform="translate(2 2)"/><rect class="c" width="2" height="2" transform="translate(5 2)"/><rect class="c" width="2" height="2" transform="translate(5 5)"/><rect class="c" width="2" height="2" transform="translate(2 5)"/><rect class="c" width="1" height="4" transform="translate(6 9)"/><g transform="translate(11 6)"><rect class="c" width="1" height="13" transform="translate(8)"/><rect class="c" width="1" height="13"/><rect class="c" width="1" height="4" transform="translate(2 9)"/><rect class="c" width="7" height="1" transform="translate(1)"/><rect class="c" width="9" height="1" transform="translate(0 13)"/><rect class="c" width="3" height="1" transform="translate(3 9)"/><rect class="c" width="2" height="2" transform="translate(2 2)"/><rect class="c" width="2" height="2" transform="translate(5 2)"/><rect class="c" width="2" height="2" transform="translate(5 5)"/><rect class="c" width="2" height="2" transform="translate(2 5)"/><rect class="c" width="1" height="4" transform="translate(6 9)"/></g><g transform="translate(16 1) rotate(90)"><rect class="c" width="1" height="4" transform="translate(0 1)"/><rect class="c" width="3" height="1" transform="translate(0)"/></g><g transform="translate(4 19) rotate(-90)"><rect class="c" width="1" height="4" transform="translate(0 1)"/><rect class="c" width="3" height="1" transform="translate(0)"/></g></g></svg>