<svg xmlns="http://www.w3.org/2000/svg" width="16" height="16" viewBox="0 0 16 16"><defs><style>.a{fill:#777;}</style></defs><g transform="translate(-97)"><path class="a" d="M-14,16a7.948,7.948,0,0,1-5.659-2.341A7.949,7.949,0,0,1-22,8a7.949,7.949,0,0,1,2.34-5.659A7.95,7.95,0,0,1-14,0,7.948,7.948,0,0,1-8.34,2.341,7.949,7.949,0,0,1-6,8a7.949,7.949,0,0,1-2.34,5.659A7.95,7.95,0,0,1-14,16Zm-2.72-11.337a.611.611,0,0,0-.435.18.61.61,0,0,0-.181.435.61.61,0,0,0,.181.435L-14.871,8l-2.394,2.394a.616.616,0,0,0,0,.87.61.61,0,0,0,.435.181.61.61,0,0,0,.435-.181L-14,8.87l2.285,2.286a.611.611,0,0,0,.435.18.611.611,0,0,0,.435-.18.61.61,0,0,0,.181-.435.613.613,0,0,0-.181-.437L-13.129,8l2.176-2.177a.616.616,0,0,0,0-.87.611.611,0,0,0-.435-.18.611.611,0,0,0-.435.18L-14,7.13l-2.286-2.286A.611.611,0,0,0-16.721,4.664Z" transform="translate(119)"/></g></svg>