<svg xmlns="http://www.w3.org/2000/svg" width="22" height="22" viewBox="0 0 22 22"><defs><style>.a{fill:#ebebeb;}.b{fill:#0000bc;}</style></defs><g transform="translate(-831 -357)"><circle class="a" cx="11" cy="11" r="11" transform="translate(831 357)"/><path class="b" d="M7.71,0a3.2,3.2,0,0,0-3.2,3.2,2.371,2.371,0,0,0,.28,1.42L.11,9.366a.775.775,0,0,0,0,.867c.388.221.586.182,1.253-.425l1.142,1.071a.54.54,0,0,0,.747,0,.525.525,0,0,0,0-.726L2.14,9.09l.212-.228.832.7a.515.515,0,0,0,.676,0c.191-.118.147-.5,0-.648l-.84-.8.291-.256L4.436,8.916a.538.538,0,0,0,.637,0,.458.458,0,0,0,0-.6L3.992,7.237,5.581,5.611a3.11,3.11,0,0,0,2.238.839A3.283,3.283,0,0,0,10.907,3.2,3.2,3.2,0,0,0,7.71,0Zm0,5.326A2.135,2.135,0,0,1,5.581,3.2,2.065,2.065,0,0,1,7.71,1.119,2.072,2.072,0,0,1,9.82,3.2,2.223,2.223,0,0,1,7.71,5.326Z" transform="translate(836.546 362.546)"/></g></svg>