<svg xmlns="http://www.w3.org/2000/svg" xmlns:xlink="http://www.w3.org/1999/xlink" width="14" height="16" viewBox="0 0 14 16"><defs><style>.a{fill:#FFFFFF;}.b{clip-path:url(#a);}.c{clip-path:url(#b);}.d{clip-path:url(#c);}.e{clip-path:url(#d);}</style><clipPath id="a"><path class="a" d="M28-36.71v2.124a5,5,0,0,1,1.536,1.05A4.968,4.968,0,0,1,31-30a4.97,4.97,0,0,1-1.464,3.536A4.968,4.968,0,0,1,26-25a4.97,4.97,0,0,1-3.536-1.464A4.968,4.968,0,0,1,21-30a4.97,4.97,0,0,1,1.464-3.536A5,5,0,0,1,24-34.586V-36.71A7,7,0,0,0,19-30a7,7,0,0,0,7,7,7,7,0,0,0,7-7A7,7,0,0,0,28-36.71ZM25-39h2v8H25Z"/></clipPath><clipPath id="b"><path class="a" d="M11-16H41V-46H11Z"/></clipPath><clipPath id="c"><rect class="a" width="24" height="26" transform="translate(14 -44)"/></clipPath><clipPath id="d"><path class="a" d="M19-23H33V-39H19Z"/></clipPath></defs><g class="b" transform="translate(-19 39)"><g class="c"><g class="d"><g class="e"><path class="a" d="M14-44H38v26H14Z"/></g></g></g></g></svg>