<svg xmlns="http://www.w3.org/2000/svg" width="29.029" height="29.029" viewBox="0 0 29.029 29.029"><defs><style>.a{fill:#010002;}</style></defs><path class="a" d="M26.611,2.721H22.679V.907a.907.907,0,0,0-1.814,0V2.721H15.422V.907a.907.907,0,0,0-1.814,0V2.721H8.164V.907a.907.907,0,0,0-1.814,0V2.721H2.419A2.419,2.419,0,0,0,0,5.14V26.61a2.419,2.419,0,0,0,2.419,2.419H26.611a2.419,2.419,0,0,0,2.418-2.419V5.14A2.418,2.418,0,0,0,26.611,2.721Zm.6,23.888a.605.605,0,0,1-.6.605H2.419a.606.606,0,0,1-.605-.605V5.14a.605.605,0,0,1,.605-.6H6.35V6.35a.907.907,0,0,0,1.814,0V4.536h5.443V6.35a.907.907,0,0,0,1.814,0V4.536h5.443V6.35a.907.907,0,0,0,1.814,0V4.536h3.932a.605.605,0,0,1,.6.6Z"/><rect class="a" width="3.629" height="2.721" transform="translate(6.35 10.886)"/><rect class="a" width="3.629" height="2.721" transform="translate(6.35 15.422)"/><rect class="a" width="3.629" height="2.721" transform="translate(6.35 19.957)"/><rect class="a" width="3.629" height="2.721" transform="translate(12.7 19.957)"/><rect class="a" width="3.629" height="2.721" transform="translate(12.7 15.422)"/><rect class="a" width="3.629" height="2.721" transform="translate(12.7 10.886)"/><rect class="a" width="3.629" height="2.721" transform="translate(19.05 19.957)"/><rect class="a" width="3.629" height="2.721" transform="translate(19.05 15.422)"/><rect class="a" width="3.629" height="2.721" transform="translate(19.05 10.886)"/></svg>