<svg xmlns="http://www.w3.org/2000/svg" width="22.323" height="19.99" viewBox="0 0 22.323 19.99"><defs><style>.a{fill:#bebeed;}</style></defs><g transform="translate(0 -0.005)"><path class="a" d="M13.937,16.682a.5.5,0,0,1-.5-.5V10.41L5.773,6.056l-4.285,2.7,7.183,4.082,3.482-2.192a.5.5,0,1,1,.538.854L8.952,13.852a.5.5,0,0,1-.269.078.5.5,0,0,1-.249-.067L.256,9.215A.5.5,0,0,1,0,8.788a.509.509,0,0,1,.236-.439L5.49,5.04,8.117,3.386,13.37.077a.505.505,0,0,1,.518-.012l8.179,4.649a.5.5,0,0,1,.019.866L18.348,7.935a.505.505,0,1,1-.538-.855l3.025-1.9L13.653,1.093l-4.284,2.7,7.44,4.23a.59.59,0,0,1,.055.036l.011.009a.461.461,0,0,1,.039.034l0,0,0,0a.407.407,0,0,1,.041.047l0,0,.006.008.02.027L17,8.2l0,.006.007.011a.376.376,0,0,1,.019.039l0,.008,0,.009c.007.018.013.037.019.055a.523.523,0,0,1,.013.062.047.047,0,0,1,0,.006V8.4a.46.46,0,0,1,0,.05v6.069a.5.5,0,0,1-.236.427L14.207,16.6A.5.5,0,0,1,13.937,16.682ZM8.4,4.4,6.742,5.445l7.445,4.233a.5.5,0,0,1,.256.438v5.146l1.617-1.018V9.377l-.569.358a.506.506,0,0,1-.7-.158.5.5,0,0,1,.158-.7l.628-.4L8.4,4.4Z" transform="translate(0 0.005)"/><path class="a" d="M3.975.078.236,2.432a.505.505,0,1,0,.538.855L4.513.933A.505.505,0,0,0,3.975.078Z" transform="translate(17.574 6.674)"/><path class="a" d="M12.153,2.372,8.67,4.565.755.066a.505.505,0,0,0-.5.878L8.434,5.593a.5.5,0,0,0,.519-.012l3.739-2.354a.505.505,0,0,0-.538-.855Z" transform="translate(0 10.296)"/><path class="a" d="M3.975.078.236,2.432a.505.505,0,1,0,.538.855L4.513.933A.505.505,0,0,0,3.975.078Z" transform="translate(17.574 8.694)"/><path class="a" d="M12.153,2.372,8.67,4.565.755.066a.505.505,0,0,0-.5.878L8.434,5.593a.5.5,0,0,0,.519-.012l3.739-2.354a.505.505,0,0,0-.538-.855Z" transform="translate(0 12.316)"/><path class="a" d="M3.975.078.236,2.432a.505.505,0,1,0,.538.855L4.513.932A.505.505,0,0,0,3.975.078Z" transform="translate(17.574 10.714)"/><path class="a" d="M12.153,2.372,8.67,4.565.755.066a.505.505,0,0,0-.5.878L8.434,5.593a.5.5,0,0,0,.519-.012l3.739-2.354a.505.505,0,0,0-.538-.855Z" transform="translate(0 14.336)"/></g></svg>