<svg xmlns="http://www.w3.org/2000/svg" xmlns:xlink="http://www.w3.org/1999/xlink" width="15" height="15" viewBox="0 0 15 15"><defs><style>.a,.b{fill:rgba(0,0,0,0);}.b{clip-rule:evenodd;}.c{clip-path:url(#a);}.d{clip-path:url(#b);}.e{clip-path:url(#c);}.f{clip-path:url(#d);}.g{clip-path:url(#e);}.h{fill:#FFFFFF;}</style><clipPath id="a"><path class="a" d="M14.5-23,7-19.786v7.5L14.5-8,22-12.286v-7.5ZM14-9.5,8-12.929v-5.215l6,3.429ZM8.3-19.188l6.2-2.658,6.2,2.658-6.2,3.544ZM21-12.929,15-9.5v-5.215l6-3.429Z"/></clipPath><clipPath id="b"><path class="a" d="M0,0H30V-30H0Z"/></clipPath><clipPath id="c"><rect class="a" width="16" height="16" transform="translate(7 -23)"/></clipPath><clipPath id="d"><path class="b" d="M7-23H23V-7H7Z"/></clipPath><clipPath id="e"><path class="a" d="M7-8H22V-23H7Z"/></clipPath></defs><g transform="translate(-11022 -5418)"><g class="c" transform="translate(11015 5441)"><g class="d"><g class="e"><g class="f"><g class="g"><path class="h" d="M2-28H28V-2H2Z"/></g></g></g></g></g></g></svg>