<svg xmlns="http://www.w3.org/2000/svg" xmlns:xlink="http://www.w3.org/1999/xlink" width="16" height="16" viewBox="0 0 16 16"><defs><style>.a,.b{fill:none;}.a{clip-rule:evenodd;}.c{clip-path:url(#a);}.d{clip-path:url(#b);}.e{clip-path:url(#c);}.f{clip-path:url(#d);}.g{clip-path:url(#e);}.h{fill:#212121;}</style><clipPath id="a"><path class="a" d="M26-70.846A1.848,1.848,0,0,1,27.846-69,1.848,1.848,0,0,1,26-67.154,1.848,1.848,0,0,1,24.154-69,1.848,1.848,0,0,1,26-70.846Zm8,3.339-2.364.36a5.907,5.907,0,0,1-.34.822L32.712-64.4,30.6-62.288,28.675-63.7a5.908,5.908,0,0,1-.822.34L27.493-61H24.507l-.36-2.364a5.908,5.908,0,0,1-.822-.34L21.4-62.288,19.288-64.4,20.7-66.325a5.9,5.9,0,0,1-.34-.822L18-67.507v-2.985l2.364-.36a5.907,5.907,0,0,1,.34-.822L19.288-73.6,21.4-75.712,23.325-74.3a5.9,5.9,0,0,1,.822-.34L24.507-77h2.985l.36,2.364a5.908,5.908,0,0,1,.822.34L30.6-75.712,32.712-73.6,31.3-71.675a5.9,5.9,0,0,1,.34.822l2.364.36Zm-8,2.445A3.942,3.942,0,0,0,29.938-69,3.942,3.942,0,0,0,26-72.937,3.942,3.942,0,0,0,22.063-69,3.942,3.942,0,0,0,26-65.062Z"/></clipPath><clipPath id="b"><path class="b" d="M11-54H41V-84H11Z"/></clipPath><clipPath id="c"><rect class="b" width="16" height="16" transform="translate(18 -77)"/></clipPath><clipPath id="d"><path class="a" d="M18-77H34v16H18Z"/></clipPath><clipPath id="e"><path class="b" d="M18-61H34V-77H18Z"/></clipPath></defs><g class="c" transform="translate(-18 77)"><g class="d"><g class="e"><g class="f"><g class="g"><path class="h" d="M13-82H39v26H13Z"/></g></g></g></g></g></svg>