<svg xmlns="http://www.w3.org/2000/svg" width="16.621" height="16.621" viewBox="0 0 16.621 16.621"><defs><style>.a{fill:#cfcfcf;}</style></defs><path class="a" d="M9.622,8.747h0a.875.875,0,0,0,0,1.75h0a.875.875,0,0,0,0-1.75ZM7,7.873A.875.875,0,1,0,6.123,7,.875.875,0,0,0,7,7.873ZM9.622,6.123h0a.875.875,0,1,0,0,1.749h0a.875.875,0,1,0,0-1.749ZM10.5,1.749H6.123V3.5H10.5Zm1.75,6.123A.875.875,0,1,0,11.372,7,.875.875,0,0,0,12.247,7.873Zm0,2.624a.875.875,0,1,0-.875-.875A.875.875,0,0,0,12.247,10.5ZM7,10.5a.875.875,0,1,0-.875-.875A.875.875,0,0,0,7,10.5ZM4.374,13.122a.875.875,0,1,0-.875-.875A.875.875,0,0,0,4.374,13.122Zm10.5-11.372H14V3.5h.875V14.871H1.75V3.5h.875V1.749H1.75A1.749,1.749,0,0,0,0,3.5V14.871a1.75,1.75,0,0,0,1.75,1.75H14.871a1.75,1.75,0,0,0,1.75-1.75V3.5A1.749,1.749,0,0,0,14.871,1.749ZM4.374,10.5A.875.875,0,1,0,3.5,9.622.875.875,0,0,0,4.374,10.5Zm0-2.624A.875.875,0,1,0,3.5,7,.875.875,0,0,0,4.374,7.873ZM7,13.122a.875.875,0,1,0-.875-.875A.875.875,0,0,0,7,13.122ZM4.374,3.5a.875.875,0,0,0,.875-.875V.875a.875.875,0,1,0-1.75,0V2.624A.875.875,0,0,0,4.374,3.5Zm7.873,0a.875.875,0,0,0,.875-.875V.875a.875.875,0,1,0-1.75,0V2.624A.875.875,0,0,0,12.247,3.5Z"/></svg>