<svg xmlns="http://www.w3.org/2000/svg" xmlns:xlink="http://www.w3.org/1999/xlink" width="13.066" height="11.2" viewBox="0 0 13.066 11.2"><defs><style>.a,.b{fill:none;}.a{clip-rule:evenodd;}.c{clip-path:url(#a);}.d{clip-path:url(#b);}.e{clip-path:url(#c);}.f{clip-path:url(#d);}.g{clip-path:url(#e);}.h{fill:#fff;}</style><clipPath id="a"><path class="a" d="M290.593-80.673l4.667-4.667a.932.932,0,0,0,0-1.32l-4.667-4.667a.932.932,0,0,0-1.32,0,.933.933,0,0,0,0,1.32l3.073,3.073H283.4a.934.934,0,0,0-.933.933.934.934,0,0,0,.933.933h8.947l-3.073,3.073a.931.931,0,0,0-.273.66.931.931,0,0,0,.273.66A.932.932,0,0,0,290.593-80.673Z"/></clipPath><clipPath id="b"><path class="b" d="M275-72h28v-28H275Z"/></clipPath><clipPath id="c"><rect class="b" width="24" height="22" transform="translate(277 -97)"/></clipPath><clipPath id="d"><path class="b" d="M282-80h14V-92H282Z"/></clipPath><clipPath id="e"><path class="a" d="M281.533-93.467h15v15h-15Z"/></clipPath></defs><g class="c" transform="translate(-282.467 91.6)"><g class="d"><g class="e"><g class="f"><path d="M277.467-96.6h23.067v21.2H277.467Z"/></g><g class="g"><g class="f"><path class="h" d="M276.533-98.467h25v25h-25Z"/></g></g></g></g></g></svg>