<svg xmlns="http://www.w3.org/2000/svg" width="23.951" height="23.952" viewBox="0 0 23.951 23.952"><path d="M23.552,23.153h-2.4V9.98a.4.4,0,0,0-.4-.4H15.169V.4a.4.4,0,0,0-.4-.4H4.391a.4.4,0,0,0-.4.4V23.153H.4a.4.4,0,0,0,0,.8H23.552a.4.4,0,0,0,0-.8Zm-15.169,0h-1.6V19.561a.4.4,0,0,1,.4-.4h.8a.4.4,0,0,1,.4.4ZM9.98,9.98V23.153h-.8V19.561a1.2,1.2,0,0,0-1.2-1.2h-.8a1.2,1.2,0,0,0-1.2,1.2v3.593H4.79V.8h9.581V9.581H10.379A.4.4,0,0,0,9.98,9.98ZM20.359,23.153H10.778V10.379h9.581Z"/><path d="M202.794,112h-2.4a.4.4,0,0,0-.4.4v2.4a.4.4,0,0,0,.4.4h2.4a.4.4,0,0,0,.4-.4v-2.4A.4.4,0,0,0,202.794,112Zm-.4,2.4h-1.6v-1.6h1.6Z" transform="translate(-190.02 -106.411)"/><path d="M202.794,32h-2.4a.4.4,0,0,0-.4.4v2.4a.4.4,0,0,0,.4.4h2.4a.4.4,0,0,0,.4-.4V32.4A.4.4,0,0,0,202.794,32Zm-.4,2.4h-1.6V32.8h1.6Z" transform="translate(-190.02 -30.403)"/><path d="M122.794,112h-2.4a.4.4,0,0,0-.4.4v2.4a.4.4,0,0,0,.4.4h2.4a.4.4,0,0,0,.4-.4v-2.4A.4.4,0,0,0,122.794,112Zm-.4,2.4h-1.6v-1.6h1.6Z" transform="translate(-114.012 -106.411)"/><path d="M122.794,32h-2.4a.4.4,0,0,0-.4.4v2.4a.4.4,0,0,0,.4.4h2.4a.4.4,0,0,0,.4-.4V32.4A.4.4,0,0,0,122.794,32Zm-.4,2.4h-1.6V32.8h1.6Z" transform="translate(-114.012 -30.403)"/><path d="M122.794,192h-2.4a.4.4,0,0,0-.4.4v2.4a.4.4,0,0,0,.4.4h2.4a.4.4,0,0,0,.4-.4v-2.4A.4.4,0,0,0,122.794,192Zm-.4,2.4h-1.6v-1.6h1.6Z" transform="translate(-114.012 -182.419)"/><path d="M122.794,272h-2.4a.4.4,0,0,0-.4.4v2.4a.4.4,0,0,0,.4.4h2.4a.4.4,0,0,0,.4-.4v-2.4A.4.4,0,0,0,122.794,272Zm-.4,2.4h-1.6v-1.6h1.6Z" transform="translate(-114.012 -258.427)"/><path d="M320.4,307.194h2.4a.4.4,0,0,0,.4-.4v-2.4a.4.4,0,0,0-.4-.4h-2.4a.4.4,0,0,0-.4.4v2.4A.4.4,0,0,0,320.4,307.194Zm.4-2.4h1.6v1.6h-1.6Z" transform="translate(-304.032 -288.831)"/><path d="M320.4,227.194h2.4a.4.4,0,0,0,.4-.4v-2.4a.4.4,0,0,0-.4-.4h-2.4a.4.4,0,0,0-.4.4v2.4A.4.4,0,0,0,320.4,227.194Zm.4-2.4h1.6v1.6h-1.6Z" transform="translate(-304.032 -212.823)"/><path d="M320.4,387.194h2.4a.4.4,0,0,0,.4-.4v-2.4a.4.4,0,0,0-.4-.4h-2.4a.4.4,0,0,0-.4.4v2.4A.4.4,0,0,0,320.4,387.194Zm.4-2.4h1.6v1.6h-1.6Z" transform="translate(-304.032 -364.839)"/><path d="M240.4,307.194h2.4a.4.4,0,0,0,.4-.4v-2.4a.4.4,0,0,0-.4-.4h-2.4a.4.4,0,0,0-.4.4v2.4A.4.4,0,0,0,240.4,307.194Zm.4-2.4h1.6v1.6h-1.6Z" transform="translate(-228.024 -288.831)"/><path d="M240.4,227.194h2.4a.4.4,0,0,0,.4-.4v-2.4a.4.4,0,0,0-.4-.4h-2.4a.4.4,0,0,0-.4.4v2.4A.4.4,0,0,0,240.4,227.194Zm.4-2.4h1.6v1.6h-1.6Z" transform="translate(-228.024 -212.823)"/><path d="M240.4,387.194h2.4a.4.4,0,0,0,.4-.4v-2.4a.4.4,0,0,0-.4-.4h-2.4a.4.4,0,0,0-.4.4v2.4A.4.4,0,0,0,240.4,387.194Zm.4-2.4h1.6v1.6h-1.6Z" transform="translate(-228.024 -364.839)"/></svg>