<svg xmlns="http://www.w3.org/2000/svg" width="93" height="81.129" viewBox="0 0 93 81.129"><g transform="translate(0 -32.68)"><g transform="translate(0 32.68)"><path d="M92.552,33.1a1.483,1.483,0,0,0-1.573-.32L.947,67.746a1.484,1.484,0,0,0-.191,2.676L19.413,80.935l6.476,31.652a1.483,1.483,0,0,0,.262.611l.035.046a1.485,1.485,0,0,0,.929.545c.048.008.1.013.144.016.031,0,.062,0,.093,0a1.475,1.475,0,0,0,.78-.223,1.456,1.456,0,0,0,.219-.166c.021-.02.04-.037.058-.056L42.454,99.282a1.484,1.484,0,0,0-2.1-2.1L29.32,108.247,31.7,87.832,65.4,106.325a1.482,1.482,0,0,0,1.062.142c.038-.009.073-.019.107-.03a1.481,1.481,0,0,0,.831-.672l.027-.048a1.483,1.483,0,0,0,.094-.218l25.4-70.834A1.484,1.484,0,0,0,92.552,33.1ZM4.947,69.377,78.535,40.8,20.679,78.241Zm24.61,14.935a1.485,1.485,0,0,0-.354.412c-.012.021-.024.043-.035.064a1.479,1.479,0,0,0-.16.542L26.949,102.96,22.389,80.67l49.97-32.34ZM65.3,102.887,33.1,85.212,88.264,38.836Z" transform="translate(0 -32.68)"/></g></g></svg>