<svg xmlns="http://www.w3.org/2000/svg" width="102" height="93" viewBox="0 0 102 93"><defs><style>.a{fill:#c5c5c5;}.b{fill:#eee;}</style></defs><path class="a" d="M51.172,53a1.816,1.816,0,0,1-1.292-.536L32.958,35.543a20.211,20.211,0,1,1,2.585-2.584L52.464,49.881A1.827,1.827,0,0,1,51.172,53ZM20.1,3.655A16.448,16.448,0,1,0,36.552,20.1,16.467,16.467,0,0,0,20.1,3.655Z" transform="translate(33 40)"/><path class="b" d="M87.128,29.308a33.246,33.246,0,0,0-8.532,0,1.779,1.779,0,0,1-.277.022,1.835,1.835,0,0,1-.271-3.647,34.568,34.568,0,0,1,7.437-.227C84.263,11.248,72.548,0,58.441,0A28.787,28.787,0,0,0,36.064,11.236a16.505,16.505,0,0,1,5.829,12.6,1.821,1.821,0,1,1-3.643,0,12.788,12.788,0,0,0-7.124-11.5c-.126-.062-.253-.126-.382-.185a12.359,12.359,0,0,0-1.521-.589c-.064-.018-.129-.031-.193-.049a12.735,12.735,0,0,0-1.437-.325c-.142-.024-.282-.046-.424-.066A12.671,12.671,0,0,0,12.75,23.833c0,.15.011.3.022.447l.022.385-.016.293c-.013.238-.027.475-.027.708v1.155l-1.033.5A21.806,21.806,0,0,0,0,46.116,19.841,19.841,0,0,0,19.753,66H29.806a23.678,23.678,0,1,1,46.033,0h7.9A18.347,18.347,0,0,0,102,47.615,18.764,18.764,0,0,0,87.128,29.308Z"/></svg>