<svg xmlns="http://www.w3.org/2000/svg" width="31.998" height="27.517" viewBox="0 0 31.998 27.517"><g transform="translate(0 -35.857)"><g transform="translate(0 35.857)"><g transform="translate(0 0)"><path d="M31.586,59.015,18.461,37.247a2.875,2.875,0,0,0-4.924,0L.412,59.015a2.875,2.875,0,0,0,2.462,4.359H29.124a2.875,2.875,0,0,0,2.462-4.359Zm-1.773,1.874a.793.793,0,0,1-.689.4H2.874a.791.791,0,0,1-.678-1.2L15.321,38.323a.791.791,0,0,1,1.355,0L29.8,60.091A.792.792,0,0,1,29.813,60.888Z" transform="translate(0 -35.857)"/></g></g><g transform="translate(14.598 44.428)"><g transform="translate(0 0)"><path d="M234.989,173.005c-.792,0-1.411.425-1.411,1.179,0,2.3.271,5.605.271,7.905,0,.6.522.85,1.14.85.464,0,1.121-.251,1.121-.85,0-2.3.271-5.605.271-7.905A1.242,1.242,0,0,0,234.989,173.005Z" transform="translate(-233.578 -173.005)"/></g></g><g transform="translate(14.54 55.697)"><g transform="translate(0 0)"><path d="M234.139,353.306a1.488,1.488,0,1,0,0,2.977,1.488,1.488,0,0,0,0-2.977Z" transform="translate(-232.651 -353.306)"/></g></g></g></svg>