<svg xmlns="http://www.w3.org/2000/svg" width="14.47" height="12.058" viewBox="0 0 14.47 12.058"><path d="M13.264,44.475H10.25v-.6a1.207,1.207,0,0,0-1.206-1.206H5.426A1.207,1.207,0,0,0,4.22,43.872v.6H1.206A1.207,1.207,0,0,0,0,45.681v7.838a1.207,1.207,0,0,0,1.206,1.206H13.264a1.207,1.207,0,0,0,1.206-1.206V45.681A1.207,1.207,0,0,0,13.264,44.475Zm-8.441-.6a.6.6,0,0,1,.6-.6H9.044a.6.6,0,0,1,.6.6v.6H4.823Zm9.044,9.647a.6.6,0,0,1-.6.6H1.206a.6.6,0,0,1-.6-.6V49.13a1.192,1.192,0,0,0,.6.168H6.029v.9a.3.3,0,0,0,.3.3H8.139a.3.3,0,0,0,.3-.3v-.9h4.823a1.192,1.192,0,0,0,.6-.168v4.388ZM6.632,49.9V48.7H7.838V49.9Zm7.235-1.809a.6.6,0,0,1-.6.6H8.441v-.3a.3.3,0,0,0-.3-.3H6.331a.3.3,0,0,0-.3.3v.3H1.206a.6.6,0,0,1-.6-.6V45.681a.6.6,0,0,1,.6-.6H13.264a.6.6,0,0,1,.6.6Z" transform="translate(0 -42.666)"/></svg>