<svg xmlns="http://www.w3.org/2000/svg" width="15.995" height="15.272" viewBox="0 0 15.995 15.272"><defs><style>.a{fill:#2e2e2e;}</style></defs><path class="a" d="M15.973,16.782a.446.446,0,0,0-.358-.3l-4.99-.709L8.38,11.257a.445.445,0,0,0-.4-.246h0a.442.442,0,0,0-.4.25L5.369,15.788l-4.99.742a.446.446,0,0,0-.358.3.438.438,0,0,0,.115.453l3.621,3.509-.837,4.97a.446.446,0,0,0,.437.519.421.421,0,0,0,.207-.053l4.455-2.36L12.487,26.2a.453.453,0,0,0,.2.049h0a.446.446,0,0,0,.443-.443.346.346,0,0,0-.013-.1l-.863-4.941,3.6-3.529A.434.434,0,0,0,15.973,16.782Zm-4.5,3.516a.438.438,0,0,0-.125.394L12.1,25l-3.88-2.026a.449.449,0,0,0-.414,0L3.941,25.026l.726-4.317a.443.443,0,0,0-.128-.391L1.4,17.271l4.33-.643a.44.44,0,0,0,.332-.243l1.924-3.93,1.95,3.92a.451.451,0,0,0,.335.243l4.333.617Z" transform="translate(0 -11.011)"/></svg>