<svg xmlns="http://www.w3.org/2000/svg" xmlns:xlink="http://www.w3.org/1999/xlink" width="60" height="60" viewBox="0 0 60 60"><defs><style>.a{fill:none;}.b{opacity:0.752;}.c{clip-path:url(#a);}.d{fill:#fff;}</style><clipPath id="a"><path class="a" d="M0,0H15.94V15.96H0Z" transform="translate(0.06 0.04)"/></clipPath></defs><rect class="a" width="60" height="60"/><g class="b" transform="translate(22 22)"><path class="a" d="M0,0H15.94V15.96H0Z" transform="translate(0.06 0.04)"/><g class="c"><path class="d" d="M8,16a8,8,0,1,1,8-8A8.009,8.009,0,0,1,8,16Zm0-5a1,1,0,1,0,1,1A1,1,0,0,0,8,11ZM8,4.125a2.243,2.243,0,0,1,1.391.437,1.192,1.192,0,0,1,.484.938c0,.42-.312.66-1.022,1.107a5.289,5.289,0,0,0-1,.742,1.956,1.956,0,0,0-.6,1.4v.5a.75.75,0,0,0,1.5,0v-.5c0-.28.288-.492.9-.877A2.859,2.859,0,0,0,11.374,5.5,2.666,2.666,0,0,0,10.32,3.387,3.734,3.734,0,0,0,8,2.625,3.348,3.348,0,0,0,5.968,3.3a3.41,3.41,0,0,0-1.2,1.721.749.749,0,0,0,.5.934.734.734,0,0,0,.216.031A.745.745,0,0,0,6.2,5.458,1.89,1.89,0,0,1,8,4.125Z"/></g></g></svg>