<svg xmlns="http://www.w3.org/2000/svg" xmlns:xlink="http://www.w3.org/1999/xlink" width="15.94" height="15.96" viewBox="0 0 15.94 15.96"><defs><style>.a{fill:none;}.b{clip-path:url(#a);}.c{fill:#777;}</style><clipPath id="a"><path class="a" d="M0,0H15.94V15.96H0Z" transform="translate(0.06 0.04)"/></clipPath></defs><g transform="translate(-0.06 -0.04)"><path class="a" d="M0,0H15.94V15.96H0Z" transform="translate(0.06 0.04)"/><g class="b"><path class="c" d="M15.5,16H.5a.5.5,0,0,1-.5-.5V.5A.5.5,0,0,1,.5,0h13L16,2.5v13A.5.5,0,0,1,15.5,16ZM3,8A1,1,0,0,0,2,9v6.5H14V9a1,1,0,0,0-1-1ZM4,.5v4a.5.5,0,0,0,.5.5h7a.5.5,0,0,0,.5-.5V.5Z"/></g><path class="c" d="M0,3H2V0H0Z" transform="translate(9 1)"/><path class="c" d="M0,1H8V0H0Z" transform="translate(4 9)"/><path class="c" d="M0,1H8V0H0Z" transform="translate(4 11)"/><path class="c" d="M0,1H8V0H0Z" transform="translate(4 13)"/></g></svg>