<svg xmlns="http://www.w3.org/2000/svg" xmlns:xlink="http://www.w3.org/1999/xlink" width="19" height="22" viewBox="0 0 19 22"><defs><style>.a{fill:none;}.b{fill:#0000bc;}.c{clip-path:url(#a);}.d{clip-path:url(#b);}</style><clipPath id="a"><path class="a" d="M17,22H6a2,2,0,0,1-2-2V6A2,2,0,0,1,6,4H17a2,2,0,0,1,2,2V20A2,2,0,0,1,17,22ZM6,6V20H17V6ZM2,16H0V2A2,2,0,0,1,2,0H14V2H2V16Z"/></clipPath><clipPath id="b"><rect class="b" width="50" height="50"/></clipPath></defs><path class="a" d="M17,22H6a2,2,0,0,1-2-2V6A2,2,0,0,1,6,4H17a2,2,0,0,1,2,2V20A2,2,0,0,1,17,22ZM6,6V20H17V6ZM2,16H0V2A2,2,0,0,1,2,0H14V2H2V16Z"/><g class="c"><g transform="translate(-15 -14)"><rect class="b" width="50" height="50"/><rect class="b" width="50" height="50"/></g></g></svg>